<svg width="69" height="202" viewBox="0 0 69 202" fill="none" xmlns="http://www.w3.org/2000/svg">
<path fill-rule="evenodd" clip-rule="evenodd" d="M24.843 23.7451C18.3724 30.2157 9.29395 33.6667 0.666504 33.6667C9.29395 33.6667 17.941 37.1176 24.843 43.5882C31.3136 50.0588 34.7646 58.7059 34.7646 67.3333C34.7646 75.9608 31.3136 84.6078 24.843 91.0784C18.3724 97.549 9.29395 101 0.666504 101C9.29395 101 17.941 104.451 24.843 110.922C31.3136 117.392 34.7646 126.039 34.7646 134.667C34.7646 143.294 31.3136 151.941 24.843 158.412C18.3724 164.882 9.29395 168.333 0.666504 168.333C9.29395 168.333 17.941 171.784 24.843 178.255C31.3136 184.726 34.7646 193.373 34.7646 202C34.7646 193.373 38.2155 184.726 44.6861 178.255C51.1567 171.784 59.8038 168.333 68.4312 168.333C59.8038 168.333 51.5881 164.882 44.6861 158.412C38.2155 151.941 34.7646 143.294 34.7646 134.667C34.7646 126.039 38.2155 117.392 44.6861 110.922C51.1567 104.451 59.8038 101 68.4312 101C59.8038 101 51.5881 97.549 44.6861 91.0784C38.2155 84.6078 34.7646 75.9608 34.7646 67.3333C34.7646 58.7059 38.2155 50.0588 44.6861 43.5882C51.1567 37.1176 59.8038 33.6667 68.4312 33.6667C59.8038 33.6667 51.5881 30.2157 44.6861 23.7451C38.2155 17.2745 34.7646 8.62745 34.7646 0C34.7646 8.62745 31.3136 17.2745 24.843 23.7451Z" fill="#98457C" fill-opacity="0.5"/>
</svg>
