<svg width="29" height="85" viewBox="0 0 29 85" fill="none" xmlns="http://www.w3.org/2000/svg">
<path d="M28.8259 89.7554C31.8409 89.7554 34.2849 87.3113 34.2849 84.2964C34.2849 81.2814 31.8409 78.8373 28.8259 78.8373C25.8109 78.8373 23.3669 81.2814 23.3669 84.2964C23.3669 87.3113 25.8109 89.7554 28.8259 89.7554Z" fill="#562185"/>
<path d="M19.2181 89.7554C22.2331 89.7554 24.6771 87.3113 24.6771 84.2964C24.6771 81.2814 22.2331 78.8373 19.2181 78.8373C16.2031 78.8373 13.759 81.2814 13.759 84.2964C13.759 87.3113 16.2031 89.7554 19.2181 89.7554Z" fill="#562185"/>
<path d="M9.60791 89.7554C12.6229 89.7554 15.067 87.3113 15.067 84.2964C15.067 81.2814 12.6229 78.8373 9.60791 78.8373C6.59291 78.8373 4.14893 81.2814 4.14893 84.2964C4.14893 87.3113 6.59291 89.7554 9.60791 89.7554Z" fill="#562185"/>
<path d="M0 89.7554C3.015 89.7554 5.45898 87.3113 5.45898 84.2964C5.45898 81.2814 3.015 78.8373 0 78.8373C-3.015 78.8373 -5.45898 81.2814 -5.45898 84.2964C-5.45898 87.3113 -3.015 89.7554 0 89.7554Z" fill="#562185"/>
<path d="M28.826 79.3175C31.498 79.3175 33.6641 77.1515 33.6641 74.4796C33.6641 71.8076 31.498 69.6416 28.826 69.6416C26.154 69.6416 23.988 71.8076 23.988 74.4796C23.988 77.1515 26.154 79.3175 28.826 79.3175Z" fill="#562185"/>
<path d="M19.2179 79.3175C21.8899 79.3175 24.0559 77.1515 24.0559 74.4796C24.0559 71.8076 21.8899 69.6416 19.2179 69.6416C16.5459 69.6416 14.3799 71.8076 14.3799 74.4796C14.3799 77.1515 16.5459 79.3175 19.2179 79.3175Z" fill="#562185"/>
<path d="M9.60797 79.3175C12.28 79.3175 14.446 77.1515 14.446 74.4796C14.446 71.8076 12.28 69.6416 9.60797 69.6416C6.93597 69.6416 4.77002 71.8076 4.77002 74.4796C4.77002 77.1515 6.93597 79.3175 9.60797 79.3175Z" fill="#562185"/>
<path d="M0.00012207 79.3175C2.67212 79.3175 4.83813 77.1515 4.83813 74.4796C4.83813 71.8076 2.67212 69.6416 0.00012207 69.6416C-2.67188 69.6416 -4.83789 71.8076 -4.83789 74.4796C-4.83789 77.1515 -2.67188 79.3175 0.00012207 79.3175Z" fill="#562185"/>
<path d="M28.826 68.8747C31.154 68.8747 33.0411 66.9879 33.0411 64.6603C33.0411 62.3328 31.154 60.4459 28.826 60.4459C26.499 60.4459 24.6121 62.3328 24.6121 64.6603C24.6121 66.9879 26.499 68.8747 28.826 68.8747Z" fill="#562185"/>
<path d="M19.2179 68.8747C21.5459 68.8747 23.4329 66.9879 23.4329 64.6603C23.4329 62.3328 21.5459 60.4459 19.2179 60.4459C16.8909 60.4459 15.0039 62.3328 15.0039 64.6603C15.0039 66.9879 16.8909 68.8747 19.2179 68.8747Z" fill="#562185"/>
<path d="M9.60803 68.8747C11.935 68.8747 13.8221 66.9879 13.8221 64.6603C13.8221 62.3328 11.935 60.4459 9.60803 60.4459C7.28003 60.4459 5.39307 62.3328 5.39307 64.6603C5.39307 66.9879 7.28003 68.8747 9.60803 68.8747Z" fill="#562185"/>
<path d="M0.00012207 68.8747C2.32712 68.8747 4.21411 66.9879 4.21411 64.6603C4.21411 62.3328 2.32712 60.4459 0.00012207 60.4459C-2.32788 60.4459 -4.21387 62.3328 -4.21387 64.6603C-4.21387 66.9879 -2.32788 68.8747 0.00012207 68.8747Z" fill="#562185"/>
<path d="M28.8259 58.4369C30.8099 58.4369 32.4189 56.8282 32.4189 54.8437C32.4189 52.8592 30.8099 51.2504 28.8259 51.2504C26.8409 51.2504 25.2329 52.8592 25.2329 54.8437C25.2329 56.8282 26.8409 58.4369 28.8259 58.4369Z" fill="#562185"/>
<path d="M19.218 58.4369C21.203 58.4369 22.811 56.8282 22.811 54.8437C22.811 52.8592 21.203 51.2504 19.218 51.2504C17.234 51.2504 15.625 52.8592 15.625 54.8437C15.625 56.8282 17.234 58.4369 19.218 58.4369Z" fill="#562185"/>
<path d="M9.60809 58.4369C11.5921 58.4369 13.2011 56.8282 13.2011 54.8437C13.2011 52.8592 11.5921 51.2504 9.60809 51.2504C7.62309 51.2504 6.01514 52.8592 6.01514 54.8437C6.01514 56.8282 7.62309 58.4369 9.60809 58.4369Z" fill="#562185"/>
<path d="M0 58.4369C1.984 58.4369 3.59302 56.8282 3.59302 54.8437C3.59302 52.8592 1.984 51.2504 0 51.2504C-1.985 51.2504 -3.59399 52.8592 -3.59399 54.8437C-3.59399 56.8282 -1.985 58.4369 0 58.4369Z" fill="#562185"/>
<path d="M28.826 47.9993C30.468 47.9993 31.798 46.6686 31.798 45.0271C31.798 43.3856 30.468 42.055 28.826 42.055C27.185 42.055 25.854 43.3856 25.854 45.0271C25.854 46.6686 27.185 47.9993 28.826 47.9993Z" fill="#562185"/>
<path d="M19.2181 47.9993C20.8601 47.9993 22.1911 46.6686 22.1911 45.0271C22.1911 43.3856 20.8601 42.055 19.2181 42.055C17.5771 42.055 16.2461 43.3856 16.2461 45.0271C16.2461 46.6686 17.5771 47.9993 19.2181 47.9993Z" fill="#562185"/>
<path d="M9.60797 47.9993C11.249 47.9993 12.58 46.6686 12.58 45.0271C12.58 43.3856 11.249 42.055 9.60797 42.055C7.96597 42.055 6.63599 43.3856 6.63599 45.0271C6.63599 46.6686 7.96597 47.9993 9.60797 47.9993Z" fill="#562185"/>
<path d="M6.10352e-05 47.9993C1.64106 47.9993 2.97205 46.6686 2.97205 45.0271C2.97205 43.3856 1.64106 42.055 6.10352e-05 42.055C-1.64194 42.055 -2.97192 43.3856 -2.97192 45.0271C-2.97192 46.6686 -1.64194 47.9993 6.10352e-05 47.9993Z" fill="#562185"/>
<path d="M28.8261 37.5592C30.1251 37.5592 31.1771 36.5066 31.1771 35.2081C31.1771 33.9097 30.1251 32.8571 28.8261 32.8571C27.5281 32.8571 26.4751 33.9097 26.4751 35.2081C26.4751 36.5066 27.5281 37.5592 28.8261 37.5592Z" fill="#562185"/>
<path d="M19.218 37.5592C20.517 37.5592 21.5689 36.5066 21.5689 35.2081C21.5689 33.9097 20.517 32.8571 19.218 32.8571C17.92 32.8571 16.8669 33.9097 16.8669 35.2081C16.8669 36.5066 17.92 37.5592 19.218 37.5592Z" fill="#562185"/>
<path d="M9.60803 37.5592C10.906 37.5592 11.959 36.5066 11.959 35.2081C11.959 33.9097 10.906 32.8571 9.60803 32.8571C8.30903 32.8571 7.25708 33.9097 7.25708 35.2081C7.25708 36.5066 8.30903 37.5592 9.60803 37.5592Z" fill="#562185"/>
<path d="M-6.10352e-05 37.5592C1.29894 37.5592 2.35095 36.5066 2.35095 35.2081C2.35095 33.9097 1.29894 32.8571 -6.10352e-05 32.8571C-1.29806 32.8571 -2.35107 33.9097 -2.35107 35.2081C-2.35107 36.5066 -1.29806 37.5592 -6.10352e-05 37.5592Z" fill="#562185"/>
<path d="M28.8261 27.1192C29.7801 27.1192 30.5541 26.3458 30.5541 25.3917C30.5541 24.4376 29.7801 23.6642 28.8261 23.6642C27.8721 23.6642 27.0991 24.4376 27.0991 25.3917C27.0991 26.3458 27.8721 27.1192 28.8261 27.1192Z" fill="#562185"/>
<path d="M19.218 27.1192C20.172 27.1192 20.9459 26.3458 20.9459 25.3917C20.9459 24.4376 20.172 23.6642 19.218 23.6642C18.264 23.6642 17.491 24.4376 17.491 25.3917C17.491 26.3458 18.264 27.1192 19.218 27.1192Z" fill="#562185"/>
<path d="M9.60785 27.1192C10.5618 27.1192 11.3349 26.3458 11.3349 25.3917C11.3349 24.4376 10.5618 23.6642 9.60785 23.6642C8.65385 23.6642 7.87988 24.4376 7.87988 25.3917C7.87988 26.3458 8.65385 27.1192 9.60785 27.1192Z" fill="#562185"/>
<path d="M0 27.1192C0.954 27.1192 1.72699 26.3458 1.72699 25.3917C1.72699 24.4376 0.954 23.6642 0 23.6642C-0.954 23.6642 -1.72803 24.4376 -1.72803 25.3917C-1.72803 26.3458 -0.954 27.1192 0 27.1192Z" fill="#562185"/>
<path d="M28.826 16.6811C29.437 16.6811 29.933 16.1858 29.933 15.5748C29.933 14.9637 29.437 14.4684 28.826 14.4684C28.215 14.4684 27.72 14.9637 27.72 15.5748C27.72 16.1858 28.215 16.6811 28.826 16.6811Z" fill="#562185"/>
<path d="M19.2181 16.6811C19.8291 16.6811 20.3251 16.1858 20.3251 15.5748C20.3251 14.9637 19.8291 14.4684 19.2181 14.4684C18.6071 14.4684 18.1121 14.9637 18.1121 15.5748C18.1121 16.1858 18.6071 16.6811 19.2181 16.6811Z" fill="#562185"/>
<path d="M9.60791 16.6811C10.2189 16.6811 10.7139 16.1858 10.7139 15.5748C10.7139 14.9637 10.2189 14.4684 9.60791 14.4684C8.99691 14.4684 8.50195 14.9637 8.50195 15.5748C8.50195 16.1858 8.99691 16.6811 9.60791 16.6811Z" fill="#562185"/>
<path d="M6.10352e-05 16.6811C0.611061 16.6811 1.10608 16.1858 1.10608 15.5748C1.10608 14.9637 0.611061 14.4684 6.10352e-05 14.4684C-0.610939 14.4684 -1.10596 14.9637 -1.10596 15.5748C-1.10596 16.1858 -0.610939 16.6811 6.10352e-05 16.6811Z" fill="#562185"/>
<path d="M28.826 6.23988C29.093 6.23988 29.3101 6.02288 29.3101 5.75528C29.3101 5.48758 29.093 5.27068 28.826 5.27068C28.558 5.27068 28.3411 5.48758 28.3411 5.75528C28.3411 6.02288 28.558 6.23988 28.826 6.23988Z" fill="#562185"/>
<path d="M19.218 6.23988C19.485 6.23988 19.702 6.02288 19.702 5.75528C19.702 5.48758 19.485 5.27068 19.218 5.27068C18.95 5.27068 18.7329 5.48758 18.7329 5.75528C18.7329 6.02288 18.95 6.23988 19.218 6.23988Z" fill="#562185"/>
<path d="M9.60706 6.23988C9.87506 6.23988 10.092 6.02288 10.092 5.75528C10.092 5.48758 9.87506 5.27068 9.60706 5.27068C9.33906 5.27068 9.12207 5.48758 9.12207 5.75528C9.12207 6.02288 9.33906 6.23988 9.60706 6.23988Z" fill="#562185"/>
<path d="M-0.000854492 6.23988C0.267146 6.23988 0.484131 6.02288 0.484131 5.75528C0.484131 5.48758 0.267146 5.27068 -0.000854492 5.27068C-0.267854 5.27068 -0.484863 5.48758 -0.484863 5.75528C-0.484863 6.02288 -0.267854 6.23988 -0.000854492 6.23988Z" fill="#562185"/>
<path d="M33.6649 85.1951C36.6789 85.1493 39.0859 82.6684 39.0399 79.6538C38.9939 76.6392 36.513 74.2324 33.499 74.2782C30.484 74.324 28.0779 76.8049 28.1229 79.8195C28.1689 82.8341 30.6499 85.2409 33.6649 85.1951Z" fill="#562185"/>
<path d="M23.9741 85.1768C26.9891 85.1768 29.4331 82.7327 29.4331 79.7178C29.4331 76.7028 26.9891 74.2587 23.9741 74.2587C20.9591 74.2587 18.5151 76.7028 18.5151 79.7178C18.5151 82.7327 20.9591 85.1768 23.9741 85.1768Z" fill="#562185"/>
<path d="M14.366 85.1768C17.381 85.1768 19.825 82.7327 19.825 79.7178C19.825 76.7028 17.381 74.2587 14.366 74.2587C11.351 74.2587 8.90698 76.7028 8.90698 79.7178C8.90698 82.7327 11.351 85.1768 14.366 85.1768Z" fill="#562185"/>
<path d="M4.75586 85.1768C7.77086 85.1768 10.2149 82.7327 10.2149 79.7178C10.2149 76.7028 7.77086 74.2587 4.75586 74.2587C1.74086 74.2587 -0.703125 76.7028 -0.703125 79.7178C-0.703125 82.7327 1.74086 85.1768 4.75586 85.1768Z" fill="#562185"/>
<path d="M-4.85199 85.1768C-1.83799 85.1768 0.606995 82.7327 0.606995 79.7178C0.606995 76.7028 -1.83799 74.2587 -4.85199 74.2587C-7.86699 74.2587 -10.312 76.7028 -10.312 79.7178C-10.312 82.7327 -7.86699 85.1768 -4.85199 85.1768Z" fill="#562185"/>
<path d="M33.5841 74.7363C36.2561 74.7363 38.4221 72.5703 38.4221 69.8984C38.4221 67.2265 36.2561 65.0604 33.5841 65.0604C30.9121 65.0604 28.7461 67.2265 28.7461 69.8984C28.7461 72.5703 30.9121 74.7363 33.5841 74.7363Z" fill="#562185"/>
<path d="M23.974 74.7363C26.646 74.7363 28.812 72.5703 28.812 69.8984C28.812 67.2265 26.646 65.0604 23.974 65.0604C21.302 65.0604 19.136 67.2265 19.136 69.8984C19.136 72.5703 21.302 74.7363 23.974 74.7363Z" fill="#562185"/>
<path d="M14.3661 74.7363C17.0371 74.7363 19.2031 72.5703 19.2031 69.8984C19.2031 67.2265 17.0371 65.0604 14.3661 65.0604C11.6941 65.0604 9.52808 67.2265 9.52808 69.8984C9.52808 72.5703 11.6941 74.7363 14.3661 74.7363Z" fill="#562185"/>
<path d="M4.755 74.7363C7.427 74.7363 9.59302 72.5703 9.59302 69.8984C9.59302 67.2265 7.427 65.0604 4.755 65.0604C2.083 65.0604 -0.0830078 67.2265 -0.0830078 69.8984C-0.0830078 72.5703 2.083 74.7363 4.755 74.7363Z" fill="#562185"/>
<path d="M23.9741 64.2967C26.3011 64.2967 28.188 62.4099 28.188 60.0823C28.188 57.7548 26.3011 55.8679 23.9741 55.8679C21.6461 55.8679 19.759 57.7548 19.759 60.0823C19.759 62.4099 21.6461 64.2967 23.9741 64.2967Z" fill="#562185"/>
<path d="M14.3659 64.2967C16.6929 64.2967 18.5799 62.4099 18.5799 60.0823C18.5799 57.7548 16.6929 55.8679 14.3659 55.8679C12.0379 55.8679 10.1509 57.7548 10.1509 60.0823C10.1509 62.4099 12.0379 64.2967 14.3659 64.2967Z" fill="#562185"/>
<path d="M4.75598 64.2967C7.08298 64.2967 8.96997 62.4099 8.96997 60.0823C8.96997 57.7548 7.08298 55.8679 4.75598 55.8679C2.42798 55.8679 0.541016 57.7548 0.541016 60.0823C0.541016 62.4099 2.42798 64.2967 4.75598 64.2967Z" fill="#562185"/>
<path d="M23.9739 53.8586C25.9579 53.8586 27.5669 52.2498 27.5669 50.2653C27.5669 48.2808 25.9579 46.672 23.9739 46.672C21.9889 46.672 20.3809 48.2808 20.3809 50.2653C20.3809 52.2498 21.9889 53.8586 23.9739 53.8586Z" fill="#562185"/>
<path d="M14.366 53.8586C16.35 53.8586 17.959 52.2498 17.959 50.2653C17.959 48.2808 16.35 46.672 14.366 46.672C12.381 46.672 10.772 48.2808 10.772 50.2653C10.772 52.2498 12.381 53.8586 14.366 53.8586Z" fill="#562185"/>
<path d="M4.75513 53.8586C6.74013 53.8586 8.34912 52.2498 8.34912 50.2653C8.34912 48.2808 6.74013 46.672 4.75513 46.672C2.77113 46.672 1.16211 48.2808 1.16211 50.2653C1.16211 52.2498 2.77113 53.8586 4.75513 53.8586Z" fill="#562185"/>
<path d="M23.973 43.4181C25.615 43.4181 26.946 42.0874 26.946 40.4459C26.946 38.8045 25.615 37.4738 23.973 37.4738C22.332 37.4738 21.001 38.8045 21.001 40.4459C21.001 42.0874 22.332 43.4181 23.973 43.4181Z" fill="#562185"/>
<path d="M14.3661 43.4181C16.0071 43.4181 17.3381 42.0874 17.3381 40.4459C17.3381 38.8045 16.0071 37.4738 14.3661 37.4738C12.7241 37.4738 11.394 38.8045 11.394 40.4459C11.394 42.0874 12.7241 43.4181 14.3661 43.4181Z" fill="#562185"/>
<path d="M4.75494 43.4181C6.39694 43.4181 7.72797 42.0874 7.72797 40.4459C7.72797 38.8045 6.39694 37.4738 4.75494 37.4738C3.11394 37.4738 1.78296 38.8045 1.78296 40.4459C1.78296 42.0874 3.11394 43.4181 4.75494 43.4181Z" fill="#562185"/>
<path d="M23.9741 32.981C25.2721 32.981 26.3251 31.9284 26.3251 30.63C26.3251 29.3315 25.2721 28.279 23.9741 28.279C22.6751 28.279 21.623 29.3315 21.623 30.63C21.623 31.9284 22.6751 32.981 23.9741 32.981Z" fill="#562185"/>
<path d="M14.3661 32.981C15.6641 32.981 16.7171 31.9284 16.7171 30.63C16.7171 29.3315 15.6641 28.279 14.3661 28.279C13.0671 28.279 12.0151 29.3315 12.0151 30.63C12.0151 31.9284 13.0671 32.981 14.3661 32.981Z" fill="#562185"/>
<path d="M4.75507 32.981C6.05407 32.981 7.10608 31.9284 7.10608 30.63C7.10608 29.3315 6.05407 28.279 4.75507 28.279C3.45707 28.279 2.40405 29.3315 2.40405 30.63C2.40405 31.9284 3.45707 32.981 4.75507 32.981Z" fill="#562185"/>
<path d="M23.9741 22.5406C24.9281 22.5406 25.7011 21.7672 25.7011 20.8131C25.7011 19.859 24.9281 19.0856 23.9741 19.0856C23.0201 19.0856 22.2461 19.859 22.2461 20.8131C22.2461 21.7672 23.0201 22.5406 23.9741 22.5406Z" fill="#562185"/>
<path d="M14.366 22.5406C15.32 22.5406 16.0939 21.7672 16.0939 20.8131C16.0939 19.859 15.32 19.0856 14.366 19.0856C13.412 19.0856 12.6389 19.859 12.6389 20.8131C12.6389 21.7672 13.412 22.5406 14.366 22.5406Z" fill="#562185"/>
<path d="M4.75604 22.5406C5.71004 22.5406 6.48303 21.7672 6.48303 20.8131C6.48303 19.859 5.71004 19.0856 4.75604 19.0856C3.80204 19.0856 3.02808 19.859 3.02808 20.8131C3.02808 21.7672 3.80204 22.5406 4.75604 22.5406Z" fill="#562185"/>
<path d="M23.9739 12.1001C24.5849 12.1001 25.08 11.6048 25.08 10.9937C25.08 10.3827 24.5849 9.88738 23.9739 9.88738C23.3629 9.88738 22.8669 10.3827 22.8669 10.9937C22.8669 11.6048 23.3629 12.1001 23.9739 12.1001Z" fill="#562185"/>
<path d="M14.3661 12.1001C14.9771 12.1001 15.472 11.6048 15.472 10.9937C15.472 10.3827 14.9771 9.88738 14.3661 9.88738C13.7551 9.88738 13.259 10.3827 13.259 10.9937C13.259 11.6048 13.7551 12.1001 14.3661 12.1001Z" fill="#562185"/>
<path d="M4.75494 12.1001C5.36594 12.1001 5.86194 11.6048 5.86194 10.9937C5.86194 10.3827 5.36594 9.88738 4.75494 9.88738C4.14394 9.88738 3.64893 10.3827 3.64893 10.9937C3.64893 11.6048 4.14394 12.1001 4.75494 12.1001Z" fill="#562185"/>
<path d="M23.9731 1.66172C24.2411 1.66172 24.4581 1.44475 24.4581 1.17711C24.4581 0.909468 24.2411 0.692508 23.9731 0.692508C23.7051 0.692508 23.488 0.909468 23.488 1.17711C23.488 1.44475 23.7051 1.66172 23.9731 1.66172Z" fill="#562185"/>
<path d="M14.3649 1.66172C14.6319 1.66172 14.8489 1.44475 14.8489 1.17711C14.8489 0.909468 14.6319 0.692508 14.3649 0.692508C14.0969 0.692508 13.8799 0.909468 13.8799 1.17711C13.8799 1.44475 14.0969 1.66172 14.3649 1.66172Z" fill="#562185"/>
<path d="M4.755 1.66172C5.022 1.66172 5.23901 1.44475 5.23901 1.17711C5.23901 0.909468 5.022 0.692508 4.755 0.692508C4.487 0.692508 4.27002 0.909468 4.27002 1.17711C4.27002 1.44475 4.487 1.66172 4.755 1.66172Z" fill="#562185"/>
</svg>
